<svg id="visual" viewBox="0 0 900 600" width="900" height="600" xmlns="http://www.w3.org/2000/svg" xmlns:xlink="http://www.w3.org/1999/xlink" version="1.1"><rect x="0" y="0" width="900" height="600" fill="#001122"></rect><path d="M0 180L37.5 205C75 230 150 280 225 269.5C300 259 375 188 450 188C525 188 600 259 675 270C750 281 825 232 862.5 207.5L900 183L900 0L862.5 0C825 0 750 0 675 0C600 0 525 0 450 0C375 0 300 0 225 0C150 0 75 0 37.5 0L0 0Z" fill="rgb(30, 56, 135)" stroke-linecap="round" stroke-linejoin="miter"></path></svg>